<?xml version="1.0" standalone="no"?>
<!DOCTYPE svg PUBLIC "-//W3C//DTD SVG 20010904//EN"
 "http://www.w3.org/TR/2001/REC-SVG-20010904/DTD/svg10.dtd">
<svg version="1.0" xmlns="http://www.w3.org/2000/svg"
 width="268.000000pt" height="268.000000pt" viewBox="0 0 268.000000 268.000000"
 preserveAspectRatio="xMidYMid meet">
<metadata>
Created by potrace 1.11, written by Peter Selinger 2001-2013
</metadata>
<g transform="translate(0.000000,268.000000) scale(0.100000,-0.100000)"
fill="#000000" stroke="none">
<path d="M20 1360 c0 -1231 1 -1300 18 -1301 9 -1 101 -2 204 -2 l188 -2 0 95
c4 1231 3 2470 -2 2470 -3 0 -4 9 -1 20 5 20 0 20 -201 20 l-206 0 0 -1300z"/>
<path d="M1127 1888 c-17 -11 -17 -1819 1 -1825 6 -3 99 -6 205 -7 l194 -1 -1
78 c-1 43 2 81 7 84 4 3 4 10 0 16 -10 14 -10 128 0 144 4 6 4 14 -1 16 -9 6
-9 98 1 114 4 5 3 13 0 17 -10 10 -10 125 0 119 5 -3 4 4 -2 16 -9 16 -9 21 1
21 8 0 9 3 3 8 -13 9 -13 185 0 194 7 5 6 8 0 8 -6 0 -11 9 -12 20 -1 12 3 18
9 14 7 -4 7 0 1 12 -10 22 -10 224 0 241 4 6 4 14 0 16 -10 6 -9 129 0 144 4
7 4 14 0 16 -10 6 -9 129 0 144 4 7 4 14 0 16 -10 6 -9 129 0 144 4 7 4 14 -1
16 -10 7 -8 99 3 117 5 8 4 11 -3 6 -8 -4 -10 4 -7 26 10 75 16 73 -196 73
-105 0 -196 -3 -202 -7z"/>
<path d="M2343 1492 l-133 -3 0 -714 0 -715 23 -1 c84 -4 379 0 384 4 4 5 8
1245 4 1399 -1 26 -3 26 -73 30 -40 2 -133 2 -205 0z"/>
<path d="M570 1203 c-4 -233 -2 -1135 3 -1139 4 -4 89 -7 189 -6 230 0 221 0
215 15 -2 6 0 20 5 30 6 12 6 23 -1 30 -5 7 -6 19 -2 26 5 8 5 25 1 40 -4 14
-3 36 1 49 5 12 4 22 0 22 -10 0 -9 19 2 36 3 6 3 14 0 18 -11 11 -12 36 -1
36 7 0 7 4 0 13 -6 7 -7 18 -3 26 5 8 5 25 1 40 -4 14 -3 36 1 49 5 12 4 22 0
22 -10 0 -9 19 2 36 3 6 3 14 0 18 -11 11 -12 36 -1 36 7 0 7 4 0 13 -7 8 -7
18 -2 27 5 8 5 21 0 31 -5 9 -7 19 -4 22 9 9 10 77 1 77 -4 0 -3 9 3 20 6 11
7 20 3 20 -12 0 -10 104 2 112 6 5 5 8 -3 8 -10 0 -10 5 -2 20 6 11 7 20 3 20
-4 0 -8 25 -8 55 0 30 4 55 9 55 5 0 4 6 -2 13 -7 8 -7 18 -2 27 5 8 6 18 4
22 -3 5 -6 26 -6 48 l0 40 -204 0 -204 0 0 -27z"/>
<path d="M1671 860 c-4 -3 -7 -184 -7 -402 l1 -398 30 -1 c17 0 108 -1 203 -2
l172 -2 1 25 c1 14 1 38 0 53 -1 20 2 26 11 21 10 -6 10 -4 2 7 -16 20 -16 81
-1 73 8 -5 8 -3 0 7 -16 16 -17 63 -2 54 6 -4 5 3 -3 14 -11 18 -11 23 2 31 8
5 10 10 4 10 -14 0 -14 102 0 112 8 5 8 8 0 8 -5 0 -11 24 -12 55 -1 39 2 54
10 49 7 -5 8 -2 2 7 -5 8 -10 25 -12 37 -2 17 1 22 10 16 10 -6 10 -5 2 7 -16
20 -16 82 -1 72 9 -5 9 -3 1 8 -16 20 -16 82 -1 72 9 -5 9 -3 0 8 -6 8 -13 25
-15 38 l-3 25 -193 0 c-107 1 -197 -1 -201 -4z"/>
</g>
</svg>
